<mxfile host="app.diagrams.net" agent="Mozilla/5.0 (Macintosh; Intel Mac OS X 10_15_7) AppleWebKit/537.36 (KHTML, like Gecko) Chrome/138.0.0.0 Safari/537.36" version="28.0.7">
  <diagram name="Page-1" id="X7B0sDfMLhTfaV2ZaaDh">
    <mxGraphModel dx="1018" dy="655" grid="1" gridSize="10" guides="1" tooltips="1" connect="1" arrows="1" fold="1" page="1" pageScale="1" pageWidth="850" pageHeight="1100" math="0" shadow="0">
      <root>
        <mxCell id="0" />
        <mxCell id="1" parent="0" />
        <mxCell id="S70gBKhp0CajjPdSOWwC-5" style="edgeStyle=orthogonalEdgeStyle;rounded=0;orthogonalLoop=1;jettySize=auto;html=1;" edge="1" parent="1" source="S70gBKhp0CajjPdSOWwC-2" target="S70gBKhp0CajjPdSOWwC-4">
          <mxGeometry relative="1" as="geometry" />
        </mxCell>
        <mxCell id="S70gBKhp0CajjPdSOWwC-2" value="Input&lt;br&gt;Multi News source" style="shape=manualInput;whiteSpace=wrap;html=1;" vertex="1" parent="1">
          <mxGeometry x="60" y="200" width="80" height="80" as="geometry" />
        </mxCell>
        <mxCell id="S70gBKhp0CajjPdSOWwC-7" style="edgeStyle=orthogonalEdgeStyle;rounded=0;orthogonalLoop=1;jettySize=auto;html=1;entryX=0;entryY=0.5;entryDx=0;entryDy=0;" edge="1" parent="1" source="S70gBKhp0CajjPdSOWwC-4" target="S70gBKhp0CajjPdSOWwC-6">
          <mxGeometry relative="1" as="geometry" />
        </mxCell>
        <mxCell id="S70gBKhp0CajjPdSOWwC-4" value="AI Model Consumes and reinterpret" style="rounded=0;whiteSpace=wrap;html=1;" vertex="1" parent="1">
          <mxGeometry x="210" y="210" width="120" height="60" as="geometry" />
        </mxCell>
        <mxCell id="S70gBKhp0CajjPdSOWwC-9" style="edgeStyle=orthogonalEdgeStyle;rounded=0;orthogonalLoop=1;jettySize=auto;html=1;entryX=0;entryY=0.5;entryDx=0;entryDy=0;" edge="1" parent="1" source="S70gBKhp0CajjPdSOWwC-6" target="S70gBKhp0CajjPdSOWwC-8">
          <mxGeometry relative="1" as="geometry" />
        </mxCell>
        <mxCell id="S70gBKhp0CajjPdSOWwC-6" value="Translation engine" style="rounded=0;whiteSpace=wrap;html=1;" vertex="1" parent="1">
          <mxGeometry x="390" y="210" width="120" height="60" as="geometry" />
        </mxCell>
        <mxCell id="S70gBKhp0CajjPdSOWwC-8" value="Publish news" style="rounded=0;whiteSpace=wrap;html=1;" vertex="1" parent="1">
          <mxGeometry x="580" y="210" width="120" height="60" as="geometry" />
        </mxCell>
        <mxCell id="S70gBKhp0CajjPdSOWwC-10" value="Automating news" style="text;html=1;align=center;verticalAlign=middle;resizable=0;points=[];autosize=1;strokeColor=none;fillColor=none;" vertex="1" parent="1">
          <mxGeometry x="60" y="130" width="120" height="30" as="geometry" />
        </mxCell>
      </root>
    </mxGraphModel>
  </diagram>
</mxfile>
